<svg xmlns="http://www.w3.org/2000/svg" viewBox="0 0 512 512">
  <defs>
    <linearGradient id="bg" x1="0%" y1="0%" x2="100%" y2="100%">
      <stop offset="0%" style="stop-color:#6366f1"/>
      <stop offset="100%" style="stop-color:#22d3ee"/>
    </linearGradient>
    <linearGradient id="icon" x1="0%" y1="0%" x2="100%" y2="100%">
      <stop offset="0%" style="stop-color:#ffffff;stop-opacity:1"/>
      <stop offset="100%" style="stop-color:#e0e7ff;stop-opacity:1"/>
    </linearGradient>
  </defs>
  <!-- 배경 -->
  <rect width="512" height="512" rx="112" fill="url(#bg)"/>
  <!-- 외부 원 -->
  <circle cx="256" cy="256" r="160" fill="none" stroke="url(#icon)" stroke-width="20" opacity="0.9"/>
  <!-- 내부 원 -->
  <circle cx="256" cy="256" r="60" fill="none" stroke="url(#icon)" stroke-width="16" opacity="0.9"/>
  <!-- 십자선 -->
  <line x1="256" y1="80" x2="256" y2="160" stroke="white" stroke-width="16" stroke-linecap="round"/>
  <line x1="256" y1="352" x2="256" y2="432" stroke="white" stroke-width="16" stroke-linecap="round"/>
  <line x1="80" y1="256" x2="160" y2="256" stroke="white" stroke-width="16" stroke-linecap="round"/>
  <line x1="352" y1="256" x2="432" y2="256" stroke="white" stroke-width="16" stroke-linecap="round"/>
  <!-- 중심점 -->
  <circle cx="256" cy="256" r="16" fill="white"/>
  <!-- 코너 마커 -->
  <path d="M108 108 L108 148 M108 108 L148 108" stroke="white" stroke-width="16" stroke-linecap="round" fill="none"/>
  <path d="M404 108 L404 148 M404 108 L364 108" stroke="white" stroke-width="16" stroke-linecap="round" fill="none"/>
  <path d="M108 404 L108 364 M108 404 L148 404" stroke="white" stroke-width="16" stroke-linecap="round" fill="none"/>
  <path d="M404 404 L404 364 M404 404 L364 404" stroke="white" stroke-width="16" stroke-linecap="round" fill="none"/>
</svg>
